<svg width="15" height="14" viewBox="0 0 15 14" fill="none" xmlns="http://www.w3.org/2000/svg">
<path fill-rule="evenodd" clip-rule="evenodd" d="M6.17304 12.2122C6.17304 13.0372 6.8418 13.7059 7.66675 13.7059C8.4917 13.7059 9.16045 13.0372 9.16045 12.2122L9.16045 8.4936L12.8787 8.4936C13.7037 8.4936 14.3724 7.82485 14.3724 6.9999C14.3724 6.17495 13.7037 5.50619 12.8787 5.50619L9.16045 5.50619L9.16045 1.78815C9.16045 0.963198 8.4917 0.294444 7.66675 0.294444C6.8418 0.294444 6.17304 0.963196 6.17304 1.78815V5.50619L2.45463 5.50619C1.62968 5.50619 0.960929 6.17495 0.960929 6.9999C0.960929 7.82485 1.62968 8.4936 2.45463 8.4936L6.17304 8.4936L6.17304 12.2122Z" fill="#9EA4AF"/>
</svg>
