<svg width="18" height="18" viewBox="0 0 18 18" fill="none" xmlns="http://www.w3.org/2000/svg">
<path d="M17.6742 16.6091L13.0317 11.9455C14.0905 10.6364 14.6606 9 14.6606 7.36364C14.6606 3.27273 11.4027 0 7.33032 0C3.25792 0 0 3.27273 0 7.36364C0 11.4545 3.25792 14.7273 7.33032 14.7273C8.95928 14.7273 10.5882 14.1545 11.8914 13.0909L16.5339 17.7545C16.8597 18.0818 17.3484 18.0818 17.6742 17.7545C18 17.4273 18.0814 16.9364 17.6742 16.6091C17.7557 16.6091 17.7557 16.6091 17.6742 16.6091ZM7.33032 13.0909C4.15385 13.0909 1.62896 10.5545 1.62896 7.36364C1.62896 4.17273 4.15385 1.63636 7.33032 1.63636C10.5068 1.63636 13.0317 4.17273 13.0317 7.36364C13.0317 10.5545 10.5068 13.0909 7.33032 13.0909Z" fill="#9EA4AF"/>
</svg>
