<svg width="15" height="14" viewBox="0 0 15 14" fill="none" xmlns="http://www.w3.org/2000/svg">
<path fill-rule="evenodd" clip-rule="evenodd" d="M7.31782 0.235384C7.25412 0.238408 7.19287 0.260285 7.14219 0.298127C7.09151 0.335969 7.05379 0.387987 7.03403 0.447271L5.45515 5.07858H0.398587C0.332455 5.07879 0.268073 5.09938 0.214592 5.13741C0.161112 5.17545 0.121254 5.229 0.100684 5.29045C0.0801142 5.3519 0.0798797 5.41813 0.100014 5.47972C0.120147 5.54131 0.159625 5.59513 0.212835 5.63353L4.32 8.56973L2.74112 13.3625C2.72056 13.4243 2.7206 13.491 2.74123 13.5528C2.76185 13.6147 2.802 13.6685 2.8559 13.7066C2.9098 13.7448 2.97467 13.7652 3.0412 13.765C3.10772 13.7648 3.17247 13.744 3.22613 13.7055L7.3333 10.7694L11.4405 13.7055C11.4941 13.744 11.5589 13.7648 11.6254 13.765C11.6919 13.7652 11.7568 13.7448 11.8107 13.7066C11.8646 13.6685 11.9047 13.6147 11.9254 13.5528C11.946 13.491 11.946 13.4243 11.9255 13.3625L10.3466 8.56973L14.4538 5.63353C14.507 5.59513 14.5464 5.54131 14.5666 5.47972C14.5867 5.41813 14.5865 5.3519 14.5659 5.29045C14.5453 5.229 14.5055 5.17545 14.452 5.13741C14.3985 5.09938 14.3341 5.07879 14.268 5.07858H9.21145L7.63256 0.447271C7.61117 0.383064 7.56876 0.327526 7.51188 0.289231C7.45499 0.250935 7.3868 0.232014 7.31782 0.235384Z" fill="#9EA4AF"/>
</svg>
