<svg width="24" height="12" viewBox="0 0 24 12" fill="none" xmlns="http://www.w3.org/2000/svg">
<path d="M12 7.75957C12.9715 7.75957 13.759 6.97203 13.759 6.00056C13.759 5.02908 12.9715 4.24154 12 4.24154C11.0285 4.24154 10.241 5.02908 10.241 6.00056C10.241 6.97203 11.0285 7.75957 12 7.75957Z" fill="#EB0E38"/>
<path d="M23.0771 5.45328C22.8631 5.23935 18.0615 0.200001 12 0.200001C5.93855 0.200001 1.13691 5.23935 0.92298 5.45328C0.637734 5.7623 0.637734 6.23771 0.92298 6.54672C1.13691 6.76066 5.93855 11.8 12 11.8C18.0615 11.8 22.8631 6.76066 23.0771 6.54672C23.3623 6.23771 23.3623 5.7623 23.0771 5.45328ZM12 9.58934C10.0271 9.58934 8.41068 7.97295 8.41068 6C8.41068 4.02705 10.0271 2.41066 12 2.41066C13.973 2.41066 15.5894 4.02705 15.5894 6C15.5894 7.97295 13.973 9.58934 12 9.58934Z" fill="#EB0E38"/>
</svg>
